# FreeCAD v0.19 build Arch module
# http://www.freecadweb.org
o Body
usemtl color_cccccc
v 0.0 5.0 5.773503
v 0.0 5.0 0.0
v 0.0 -5.0 -0.0
v 0.0 -5.0 5.773503
v 10.0 5.0 0.0
v 10.0 -5.0 -0.0
v 10.0 5.0 0.0
v 0.0 5.0 0.0
v 0.0 -5.0 -0.0
v 10.0 -5.0 -0.0
vn -1.0 0.0 -0.0
vn -1.0 -0.0 0.0
vn 0.5 0.0 0.8660253882408142
vn 0.5 -3.4641016446608475e-16 0.8660253882408142
vn 0.0 3.999999802751738e-16 -1.0
vn 0.0 3.999999802751738e-16 -1.0
vn 0.0 1.0 0.0
vn 0.0 -1.0 0.0
f 1//1 2//1 3//1 
f 1//2 3//2 4//2 
f 5//3 1//3 4//3 
f 5//4 4//4 6//4 
f 2//5 5//5 6//5 
f 2//6 6//6 3//6 
f 7//7 8//7 1//7 
f 9//8 10//8 4//8 
